<svg width="13" height="11" viewBox="0 0 13 11" fill="none" xmlns="http://www.w3.org/2000/svg">
<path fill-rule="evenodd" clip-rule="evenodd" d="M12.5765 1.28812C12.7492 0.45811 11.9223 -0.231646 11.1207 0.0737199L1.2945 3.81683C0.399303 4.15784 0.359415 5.39204 1.23077 5.78852L3.37065 6.7623L4.38862 10.2751C4.44149 10.4575 4.58835 10.5988 4.77467 10.6464C4.96098 10.694 5.15894 10.6408 5.29503 10.5066L6.8631 8.9606L9.05968 10.5849C9.6973 11.0563 10.6156 10.7129 10.7758 9.94316L12.5765 1.28812ZM1.68605 4.81598L11.5123 1.07288L9.71153 9.72797L7.13808 7.82498C6.92183 7.66506 6.6192 7.68626 6.42805 7.87473L5.75642 8.53691L5.95823 7.44269L9.9123 3.54423C10.1048 3.35451 10.1251 3.05367 9.95989 2.84044C9.7947 2.62721 9.49501 2.5674 9.25871 2.70052L3.79801 5.77701L1.68605 4.81598ZM4.46383 6.63558L4.79322 7.77228L4.91969 7.08648C4.93945 6.97931 4.9919 6.88061 5.07003 6.80359L6.2759 5.61473L4.46383 6.63558Z" fill="#39BFA7"/>
</svg>
