<svg width="20" height="18" viewBox="0 0 20 18" fill="none" xmlns="http://www.w3.org/2000/svg">
<path fill-rule="evenodd" clip-rule="evenodd" d="M19.9615 2.14687C20.2493 0.763516 18.8712 -0.386077 17.5352 0.122866L1.15816 6.36138C-0.333844 6.92973 -0.400324 8.98674 1.05194 9.64754L4.6184 11.2705L6.31501 17.1251C6.40314 17.4292 6.6479 17.6647 6.95843 17.744C7.26895 17.8233 7.59888 17.7347 7.82571 17.5111L10.4392 14.9343L14.1001 17.6415C15.1628 18.4272 16.6934 17.8549 16.9603 16.5719L19.9615 2.14687ZM1.81073 8.02664L18.1878 1.78813L15.1865 16.2133L10.8974 13.0416C10.537 12.7751 10.0327 12.8104 9.71406 13.1246L8.59469 14.2282L8.93103 12.4045L15.5212 5.90705C15.8419 5.59084 15.8758 5.08944 15.6005 4.73407C15.3251 4.37868 14.8257 4.279 14.4318 4.50087L5.33067 9.62835L1.81073 8.02664ZM6.44037 11.0593L6.98935 12.9538L7.20013 11.8108C7.23307 11.6322 7.32048 11.4677 7.4507 11.3393L9.46048 9.35789L6.44037 11.0593Z" fill="#999999"/>
</svg>
