<svg width="17" height="18" viewBox="0 0 17 18" fill="none" xmlns="http://www.w3.org/2000/svg">
<path d="M3.84356 5.37046C3.93115 4.6777 4.83148 3.73616 5.546 3.84064L5.54486 3.8395C6.24022 3.97163 6.79067 5.16846 7.10106 5.70661C7.32098 6.09708 7.17817 6.49268 6.97304 6.65962C6.69631 6.88266 6.26358 7.19041 6.35437 7.49941C6.51579 8.04873 8.43219 9.96513 9.37475 10.5099C9.73151 10.7161 9.99022 10.1723 10.2111 9.89361C10.3717 9.67928 10.7676 9.55119 11.1572 9.76276C11.739 10.1016 12.2871 10.4954 12.7939 10.9387C13.047 11.1502 13.1064 11.4629 12.9311 11.7934C12.6221 12.3754 11.7286 13.143 11.08 12.987C9.94722 12.7146 5.36595 10.9387 3.8944 5.79351C3.81165 5.55011 3.83248 5.45809 3.84356 5.37046Z" fill="#999999"/>
<path fill-rule="evenodd" clip-rule="evenodd" d="M8.43217 16.8643C7.4942 16.8643 6.97524 16.7637 6.13249 16.4811L4.51844 17.2881C3.49906 17.7978 2.29968 17.0565 2.29968 15.9168V14.1814C0.648932 12.6421 0 10.8673 0 8.43217C0 3.77521 3.77521 0 8.43217 0C13.0891 0 16.8643 3.77521 16.8643 8.43217C16.8643 13.0891 13.0891 16.8643 8.43217 16.8643ZM3.8328 13.5147L3.34523 13.0601C2.06271 11.8642 1.53312 10.5273 1.53312 8.43217C1.53312 4.62193 4.62193 1.53312 8.43217 1.53312C12.2424 1.53312 15.3312 4.62193 15.3312 8.43217C15.3312 12.2424 12.2424 15.3312 8.43217 15.3312C7.67657 15.3312 7.32219 15.263 6.61998 15.0275L6.01633 14.8251L3.8328 15.9168V13.5147Z" fill="#999999"/>
</svg>
