<svg width="11" height="11" viewBox="0 0 11 11" fill="none" xmlns="http://www.w3.org/2000/svg">
<path d="M2.90585 3.22225C2.95841 2.80659 3.49861 2.24167 3.92732 2.30436L3.92663 2.30367C4.34385 2.38296 4.67412 3.10105 4.86035 3.42394C4.99231 3.65822 4.90662 3.89559 4.78354 3.99575C4.61751 4.12957 4.35787 4.31422 4.41234 4.49962C4.50919 4.82921 5.65903 5.97905 6.22457 6.30593C6.43863 6.42965 6.59385 6.10333 6.72641 5.93614C6.82272 5.80754 7.06028 5.73069 7.29402 5.85763C7.64311 6.06092 7.97196 6.29719 8.27607 6.56317C8.42794 6.69011 8.46359 6.87772 8.35835 7.076C8.173 7.42523 7.6369 7.88577 7.24775 7.79217C6.56805 7.62875 3.81929 6.56317 2.93636 3.47608C2.88671 3.33004 2.89921 3.27483 2.90585 3.22225Z" fill="#39BFA7"/>
<path fill-rule="evenodd" clip-rule="evenodd" d="M5.65891 10.1186C5.09613 10.1186 4.78476 10.0582 4.2791 9.88863L3.31067 10.3729C2.69904 10.6787 1.97942 10.2339 1.97942 9.55008V8.50883C0.988969 7.58527 0.599609 6.52038 0.599609 5.0593C0.599609 2.26513 2.86474 0 5.65891 0C8.45307 0 10.7182 2.26513 10.7182 5.0593C10.7182 7.85346 8.45307 10.1186 5.65891 10.1186ZM2.89929 8.10882L2.60675 7.83603C1.83724 7.11853 1.51948 6.31635 1.51948 5.0593C1.51948 2.77316 3.37277 0.919873 5.65891 0.919873C7.94507 0.919873 9.79834 2.77316 9.79834 5.0593C9.79834 7.34546 7.94507 9.19873 5.65891 9.19873C5.20555 9.19873 4.99292 9.15779 4.5716 9.0165L4.20941 8.89503L2.89929 9.55008V8.10882Z" fill="#39BFA7"/>
</svg>
