<svg width="23" height="19" viewBox="0 0 23 19" fill="none" xmlns="http://www.w3.org/2000/svg">
<path d="M19.8659 5.30778V5.86913C19.8659 11.522 15.5297 18 7.59514 18C5.25275 18.005 2.96011 17.3317 1 16.0633C1.34041 16.109 1.68379 16.1297 2.0273 16.1251C3.96895 16.1303 5.85601 15.4897 7.38514 14.3063C6.48309 14.2931 5.60818 13.9991 4.88475 13.466C4.16132 12.9329 3.62619 12.1878 3.35541 11.3367C3.6241 11.393 3.89804 11.4213 4.1727 11.4209C4.55624 11.421 4.93805 11.37 5.30784 11.2693C4.33082 11.0767 3.45184 10.5543 2.82132 9.79137C2.1908 9.02849 1.84792 8.0726 1.85135 7.08726V7.03113C2.44911 7.36139 3.11928 7.54251 3.80378 7.5588C2.89261 6.96577 2.24478 6.051 1.99266 5.00139C1.74054 3.95179 1.90316 2.84658 2.4473 1.91159C3.5315 3.23048 4.8842 4.30894 6.41746 5.07685C7.95072 5.84476 9.63021 6.28492 11.3468 6.36873C11.2618 6.05012 11.2217 5.72144 11.2276 5.39198C11.1956 4.52127 11.4357 3.66197 11.9153 2.93109C12.3948 2.20022 13.0905 1.63328 13.9075 1.30747C14.7245 0.981663 15.6232 0.912822 16.4812 1.11032C17.3392 1.30782 18.1148 1.76206 18.7024 2.41119C19.6683 2.21841 20.5948 1.86741 21.4438 1.37269C21.1218 2.37828 20.437 3.2315 19.5197 3.76967C20.3765 3.6529 21.2119 3.41468 22 3.06236C21.4288 3.93001 20.7062 4.69031 19.8659 5.30778Z" stroke="#999999" stroke-width="2" stroke-linecap="round" stroke-linejoin="round"/>
</svg>
