<svg width="15" height="12" viewBox="0 0 15 12" fill="none" xmlns="http://www.w3.org/2000/svg">
<path d="M12.3196 3.58467V3.92148C12.3196 7.31317 9.71784 11.2 4.95708 11.2C3.55165 11.203 2.17607 10.799 1 10.038C1.20425 10.0654 1.41027 10.0778 1.61638 10.075C2.78137 10.0782 3.9136 9.69385 4.83108 8.98376C4.28985 8.97587 3.76491 8.79946 3.33085 8.4796C2.89679 8.15974 2.57571 7.7127 2.41324 7.20203C2.57446 7.23583 2.73882 7.25276 2.90362 7.25255C3.13375 7.2526 3.36283 7.22201 3.5847 7.16161C2.99849 7.04603 2.47111 6.73255 2.09279 6.27482C1.71448 5.81709 1.50875 5.24356 1.51081 4.65236V4.61868C1.86947 4.81683 2.27157 4.9255 2.68227 4.93528C2.13557 4.57946 1.74687 4.0306 1.59559 3.40084C1.44432 2.77107 1.5419 2.10795 1.86838 1.54695C2.5189 2.33829 3.33052 2.98536 4.25048 3.44611C5.17043 3.90685 6.17813 4.17095 7.20805 4.22124C7.15707 4.03007 7.13301 3.83286 7.13654 3.63519C7.11737 3.11276 7.26145 2.59718 7.54918 2.15866C7.8369 1.72013 8.25429 1.37997 8.7445 1.18448C9.23471 0.988998 9.77393 0.947693 10.2887 1.06619C10.8035 1.18469 11.2689 1.45724 11.6215 1.84672C12.201 1.73104 12.7569 1.52044 13.2663 1.22361C13.0731 1.82697 12.6622 2.3389 12.1118 2.6618C12.6259 2.59174 13.1271 2.44881 13.6 2.23742C13.2573 2.75801 12.8237 3.21419 12.3196 3.58467Z" stroke="#39BFA7" stroke-width="1.2" stroke-linecap="round" stroke-linejoin="round"/>
</svg>
